<svg xmlns="http://www.w3.org/2000/svg" width="30.537" height="30.539" viewBox="0 0 30.537 30.539">
  <g id="Group_841" data-name="Group 841" transform="translate(-5.5 -5.231)">
    <path id="Path_69" data-name="Path 69" d="M13.837,3.061a1.732,1.732,0,1,0,1.732,1.732,1.732,1.732,0,0,0-1.732-1.732" transform="translate(14.752 7.944)" fill="none" stroke="#00818c" stroke-width="1"/>
    <path id="Path_70" data-name="Path 70" d="M11.695,4.35a7.275,7.275,0,1,0,7.275,7.275A7.283,7.283,0,0,0,11.695,4.35m0,11.934a4.66,4.66,0,1,1,4.659-4.659,4.664,4.664,0,0,1-4.659,4.659" transform="translate(9.195 8.877)" fill="none" stroke="#00818c" stroke-width="1"/>
    <path id="Path_71" data-name="Path 71" d="M20.664,29.539H8.872A8.883,8.883,0,0,1,0,20.666V8.872A8.882,8.882,0,0,1,8.872,0H20.664a8.883,8.883,0,0,1,8.873,8.872V20.666a8.883,8.883,0,0,1-8.873,8.873M8.872,2.779A6.1,6.1,0,0,0,2.777,8.872V20.666A6.1,6.1,0,0,0,8.872,26.76H20.664a6.1,6.1,0,0,0,6.094-6.094V8.872a6.1,6.1,0,0,0-6.094-6.093Z" transform="translate(6 5.731)" fill="none" stroke="#00818c" stroke-width="1"/>
  </g>
</svg>
