<svg xmlns="http://www.w3.org/2000/svg" width="28.062" height="28.001" viewBox="0 0 28.062 28.001">
  <g id="Group_211" data-name="Group 211" transform="translate(-269.469 -5259.5)">
    <path id="Path_72" data-name="Path 72" d="M.448,8.964H6.063V27H.448ZM3.256,0A3.251,3.251,0,1,1,0,3.248,3.25,3.25,0,0,1,3.256,0" transform="translate(269.969 5260)" fill="none" stroke="#00818c" stroke-width="1"/>
    <path id="Path_73" data-name="Path 73" d="M4.831,4.742h5.377V7.209h.073A5.9,5.9,0,0,1,15.591,4.3c5.677,0,6.723,3.733,6.723,8.591v9.892h-5.6v-8.77c0-2.094-.042-4.782-2.913-4.782-2.919,0-3.365,2.278-3.365,4.63v8.922h-5.6Z" transform="translate(274.716 5264.221)" fill="none" stroke="#00818c" stroke-width="1"/>
  </g>
</svg>
