<svg xmlns="http://www.w3.org/2000/svg" xmlns:xlink="http://www.w3.org/1999/xlink" width="50" height="49.998" viewBox="0 0 50 49.998">
  <defs>
    <clipPath id="clip-path">
      <rect id="Rectangle_16" data-name="Rectangle 16" width="50" height="49.998" fill="#b9b9b9"/>
    </clipPath>
  </defs>
  <g id="Group_21" data-name="Group 21" clip-path="url(#clip-path)">
    <path id="Path_37" data-name="Path 37" d="M25,0A25,25,0,1,0,50,25,25,25,0,0,0,25,0m0,46.777A21.777,21.777,0,1,1,46.777,25,21.778,21.778,0,0,1,25,46.777" transform="translate(0 0)" fill="#b9b9b9"/>
    <path id="Path_38" data-name="Path 38" d="M31.722,20.653a21.591,21.591,0,0,0-8.087,2.618A18.9,18.9,0,0,1,10.55,25.354c-.743-.141-1.426-.32-2.053-.5l.062,2.583c.449.119.92.226,1.417.327a22.506,22.506,0,0,0,4.331.426,21.492,21.492,0,0,0,10.531-2.755,19.071,19.071,0,0,1,7.106-2.316,20.082,20.082,0,0,1,6.085.232,21.777,21.777,0,0,1,2.151.528l.021-2.566c-.508-.133-1.041-.259-1.609-.372a22.611,22.611,0,0,0-6.87-.287" transform="translate(0.237 0.573)" fill="#b9b9b9"/>
    <path id="Path_39" data-name="Path 39" d="M38.595,16.349a22.483,22.483,0,0,0-6.87-.291,21.615,21.615,0,0,0-8.087,2.621,18.911,18.911,0,0,1-10.9,2.383A20.957,20.957,0,0,1,8.4,20.223l.06,2.589a22.706,22.706,0,0,0,4.089.712c.605.048,1.211.073,1.808.073A21.36,21.36,0,0,0,24.84,20.839a19.175,19.175,0,0,1,7.106-2.315,19.953,19.953,0,0,1,6.085.235,21.473,21.473,0,0,1,2.186.532v-.019l.161-2.506c-.559-.152-1.152-.3-1.785-.418" transform="translate(0.235 0.445)" fill="#b9b9b9"/>
    <path id="Path_40" data-name="Path 40" d="M31.719,25.392a21.643,21.643,0,0,0-8.087,2.616A18.916,18.916,0,0,1,12.67,30.386a20.611,20.611,0,0,1-4.064-.769l.06,2.585a23.312,23.312,0,0,0,3.8.65c.629.053,1.26.079,1.882.079a21.36,21.36,0,0,0,10.488-2.759,19.164,19.164,0,0,1,7.106-2.316,19.919,19.919,0,0,1,6.085.233c.731.14,1.4.308,2.02.488l.069-2.548q-.722-.193-1.525-.352a22.512,22.512,0,0,0-6.87-.286" transform="translate(0.24 0.705)" fill="#b9b9b9"/>
  </g>
</svg>
