<svg xmlns="http://www.w3.org/2000/svg" width="50" height="50" viewBox="0 0 50 50">
  <g id="Group_840" data-name="Group 840" transform="translate(-41)">
    <g id="Group_25" data-name="Group 25" transform="translate(41)">
      <path id="Path_51" data-name="Path 51" d="M24.953,0A25,25,0,1,0,50,24.953,24.929,24.929,0,0,0,24.953,0Zm0,46.692A21.739,21.739,0,1,1,46.692,24.953,21.742,21.742,0,0,1,24.953,46.692Z" transform="translate(0)" fill="#b9b9b9"/>
    </g>
    <g id="Group_31" data-name="Group 31" transform="translate(56.354 7.492)">
      <g id="Group_26" data-name="Group 26" transform="translate(4.6 2.5)">
        <path id="Path_52" data-name="Path 52" d="M26.4,20.9A4.6,4.6,0,1,1,31,16.3,4.653,4.653,0,0,1,26.4,20.9Zm0-7.9a3.3,3.3,0,1,0,3.3,3.3A3.329,3.329,0,0,0,26.4,13Z" transform="translate(-21.4 -11.3)" fill="#b9b9b9"/>
        <path id="Path_53" data-name="Path 53" d="M26.4,21.3a5.015,5.015,0,0,1-5-5,4.951,4.951,0,0,1,5-5,5,5,0,0,1,0,10Zm0-9.2a4.2,4.2,0,1,0,4.2,4.2A4.225,4.225,0,0,0,26.4,12.1Zm0,7.9a3.691,3.691,0,0,1-3.7-3.7,3.7,3.7,0,0,1,7.4,0A3.691,3.691,0,0,1,26.4,20Zm0-6.6a2.9,2.9,0,1,0,2.9,2.9A2.9,2.9,0,0,0,26.4,13.4Z" transform="translate(-21.4 -11.3)" fill="#b9b9b9"/>
      </g>
      <g id="Group_27" data-name="Group 27" transform="translate(0 10.4)">
        <path id="Path_54" data-name="Path 54" d="M23.8,19.3l-.3.3c-1,1.3-2.2,5.4-2.3,5.8-.6,1.8-1.1,3.7-1.6,5.5-1,3.7-2,7.5-2.8,11.3,1.7-3.5,3.2-7,4.7-10.6l2.1-5.4c.7-1.8,1.4-3.6,2-5.4l.2-.5A4.725,4.725,0,0,1,23.8,19.3Z" transform="translate(-16.8 -19.2)" fill="#b9b9b9"/>
        <path id="Path_55" data-name="Path 55" d="M33.2,30.8c-.5-1.8-1-3.7-1.6-5.5a27.183,27.183,0,0,0-2.3-5.8l-.3-.3a3.672,3.672,0,0,1-2,.9l.2.5c.6,1.8,1.3,3.6,2,5.4l2.1,5.4c1.5,3.6,3,7.1,4.7,10.6C35.2,38.3,34.2,34.5,33.2,30.8Z" transform="translate(-16.8 -19.2)" fill="#b9b9b9"/>
      </g>
      <g id="Group_29" data-name="Group 29" transform="translate(0.1 15.4)">
        <g id="Group_28" data-name="Group 28">
          <path id="Path_56" data-name="Path 56" d="M34.6,24.5a11.588,11.588,0,0,1-16.4,0l-.9.9a12.842,12.842,0,0,0,9.1,3.8,12.609,12.609,0,0,0,9.1-3.8Z" transform="translate(-16.9 -24.2)" fill="#b9b9b9"/>
          <path id="Path_57" data-name="Path 57" d="M26.4,29.5a13.428,13.428,0,0,1-9.3-3.8l-.2-.2,1.3-1.3.2.2a11.347,11.347,0,0,0,16,0l.2-.2,1.3,1.3-.2.2A13.428,13.428,0,0,1,26.4,29.5Zm-8.7-4.1a12.563,12.563,0,0,0,17.4,0l-.6-.6a11.838,11.838,0,0,1-16.4,0Z" transform="translate(-16.9 -24.2)" fill="#b9b9b9"/>
        </g>
      </g>
      <g id="Group_30" data-name="Group 30" transform="translate(8.7)">
        <rect id="Rectangle_20" data-name="Rectangle 20" width="1.3" height="3.3" transform="translate(0.2 0.3)" fill="#b9b9b9"/>
        <path id="Path_58" data-name="Path 58" d="M27.3,12.6H25.5V8.8h1.8ZM26,12.1h.8V9.3H26Z" transform="translate(-25.5 -8.8)" fill="#b9b9b9"/>
      </g>
    </g>
  </g>
</svg>
