<svg xmlns="http://www.w3.org/2000/svg" xmlns:xlink="http://www.w3.org/1999/xlink" width="50" height="50" viewBox="0 0 50 50">
  <defs>
    <clipPath id="clip-path">
      <rect id="Rectangle_19" data-name="Rectangle 19" width="50" height="50" fill="#b9b9b9"/>
    </clipPath>
  </defs>
  <g id="Group_24" data-name="Group 24" clip-path="url(#clip-path)">
    <path id="Path_49" data-name="Path 49" d="M25,0A25,25,0,1,0,50,25,25,25,0,0,0,25,0m0,46.779A21.778,21.778,0,1,1,46.778,25,21.779,21.779,0,0,1,25,46.779" transform="translate(0 0)" fill="#b9b9b9"/>
    <path id="Path_50" data-name="Path 50" d="M33.274,26.2,26.587,11.726a.031.031,0,0,1-.007-.011c-.023-.044-.042-.087-.065-.127l-.039-.071c-.023-.036-.048-.073-.07-.108a.755.755,0,0,0-.052-.075c-.023-.03-.041-.048-.062-.077s-.05-.063-.075-.091l-.044-.044a1.4,1.4,0,0,0-.111-.11c-.011-.011-.027-.02-.037-.031-.044-.036-.085-.072-.132-.106a.238.238,0,0,0-.044-.03c-.044-.032-.093-.063-.139-.093l-.051-.03c-.046-.024-.095-.05-.145-.071,0-.006-.007-.007-.01-.011l-.06-.021c-.041-.016-.083-.038-.127-.052s-.067-.022-.1-.031-.066-.022-.1-.031-.078-.015-.118-.024-.06-.012-.093-.02-.08-.008-.123-.012-.061,0-.095,0a.493.493,0,0,0-.117-.005c-.033,0-.064,0-.1,0l-.114.007a1.021,1.021,0,0,1-.1.012l-.109.02-.1.022c-.039.011-.079.022-.118.036s-.059.015-.088.028c-.046.014-.086.036-.134.052-.015.008-.038.013-.056.021a.05.05,0,0,0-.014.011c-.044.021-.091.045-.137.071-.021.009-.04.021-.058.03l-.124.085-.062.037-.1.086a.805.805,0,0,1-.063.052.527.527,0,0,0-.075.076c-.028.026-.054.048-.08.077s-.03.041-.05.066-.058.066-.085.1c-.014.021-.027.042-.04.064a1.1,1.1,0,0,0-.081.119.4.4,0,0,1-.037.064c-.019.046-.047.087-.066.131l-.007.015L15.9,26.133l-.056.133a9.352,9.352,0,1,0,17.451,0Zm-8.7,10.332a6.907,6.907,0,0,1-6.442-9.387l6.439-13.928,6.443,13.936a6.9,6.9,0,0,1-6.44,9.378" transform="translate(0.426 0.292)" fill="#b9b9b9"/>
  </g>
</svg>
