<svg xmlns="http://www.w3.org/2000/svg" xmlns:xlink="http://www.w3.org/1999/xlink" width="50" height="49.999" viewBox="0 0 50 49.999">
  <defs>
    <clipPath id="clip-path">
      <rect id="Rectangle_15" data-name="Rectangle 15" width="50" height="49.999" fill="#b9b9b9"/>
    </clipPath>
  </defs>
  <g id="Group_20" data-name="Group 20" clip-path="url(#clip-path)">
    <path id="Path_35" data-name="Path 35" d="M25,0A25,25,0,1,0,50,25,25,25,0,0,0,25,0m0,46.778A21.778,21.778,0,1,1,46.78,25,21.777,21.777,0,0,1,25,46.778" transform="translate(0 0)" fill="#b9b9b9"/>
    <path id="Path_36" data-name="Path 36" d="M24.257,21.613c-1.076.309-2.156.6-3.234.908.172-.472.345-.943.506-1.42.434-1.3.9-2.58,1.3-3.894.845-2.6,1.629-5.232,2.274-7.914-1.418,2.366-2.687,4.8-3.9,7.258-.624,1.221-1.178,2.465-1.77,3.7s-1.125,2.488-1.689,3.735L16.7,26.309l2.578-.59c1.911-.444,3.8-.982,5.692-1.454,1.1-.275,2.182-.581,3.269-.889-.29.935-.575,1.873-.865,2.808-.552,1.739-1.025,3.5-1.535,5.251-.962,3.525-1.891,7.058-2.61,10.665,1.638-3.295,3.061-6.657,4.448-10.035.664-1.7,1.37-3.385,1.994-5.1s1.3-3.406,1.884-5.127l.815-2.381-2.436.649c-1.892.5-3.8.956-5.678,1.506" transform="translate(0.467 0.26)" fill="#b9b9b9"/>
  </g>
</svg>
