<svg xmlns="http://www.w3.org/2000/svg" xmlns:xlink="http://www.w3.org/1999/xlink" width="50" height="49.998" viewBox="0 0 50 49.998">
  <defs>
    <clipPath id="clip-path">
      <rect id="Rectangle_17" data-name="Rectangle 17" width="50" height="49.998" fill="#b9b9b9"/>
    </clipPath>
  </defs>
  <g id="Group_22" data-name="Group 22" clip-path="url(#clip-path)">
    <path id="Path_41" data-name="Path 41" d="M25,0A25,25,0,1,0,50,25,25,25,0,0,0,25,0m0,46.777A21.777,21.777,0,1,1,46.777,25,21.778,21.778,0,0,1,25,46.777" transform="translate(0 0)" fill="#b9b9b9"/>
    <path id="Path_42" data-name="Path 42" d="M39.86,26.206l-6.834,1.831v0l-5.664-3.27,5.67-3.273v0l6.834,1.832.68-2.54-4.3-1.151,3.495-2.018-1.314-2.277-3.483,2.011,1.146-4.276-2.539-.68-1.827,6.816-5.672,3.274V15.959l0,0,5-5L29.2,9.1l-3.145,3.145V8.21H23.428v4.021L20.3,9.1l-1.859,1.859,4.99,4.99V22.5l-5.655-3.265h0L15.945,12.4l-2.539.68,1.151,4.3-3.5-2.018L9.747,17.635l3.482,2.011L8.953,20.79l.68,2.54L16.449,21.5l5.657,3.266-5.651,3.263L9.64,26.206l-.682,2.539,4.277,1.146L9.747,31.9l1.314,2.277,3.5-2.022-1.151,4.3,2.54.68L17.783,30.3h0l5.649-3.261v6.542l-4.99,4.99L20.3,40.432,23.428,37.3V41.33h2.628V37.287L29.2,40.432l1.86-1.859-5-5,0,0V27.051l5.665,3.271,1.827,6.816,2.54-.68L34.942,32.18l3.489,2.015,1.314-2.277-3.5-2.022,4.3-1.151Z" transform="translate(0.25 0.229)" fill="#b9b9b9"/>
  </g>
</svg>
