<svg xmlns="http://www.w3.org/2000/svg" xmlns:xlink="http://www.w3.org/1999/xlink" width="155.828" height="39.916" viewBox="0 0 155.828 39.916">
  <defs>
    <clipPath id="clip-path">
      <rect id="Rectangle_214" data-name="Rectangle 214" width="155.828" height="39.916" fill="none"/>
    </clipPath>
  </defs>
  <g id="Group_781" data-name="Group 781" clip-path="url(#clip-path)">
    <path id="Path_1067" data-name="Path 1067" d="M120.618,40.805a7.939,7.939,0,0,1-2.867.87,25.94,25.94,0,0,1-2.674.161,6.756,6.756,0,0,1-4.06-1.256,4.777,4.777,0,0,1-1.739-4.156,4.477,4.477,0,0,1,1.578-3.866,9.1,9.1,0,0,1,4.027-1.547,3.793,3.793,0,0,0,.773-.1c.3-.064.645-.117,1.03-.161q2.835-.387,2.835-1.675a1.221,1.221,0,0,0-1-1.256,6.645,6.645,0,0,0-1.837-.29,4.676,4.676,0,0,0-1.61.258,1.753,1.753,0,0,0-1.031.966h-4.317a4.963,4.963,0,0,1,1.8-3.286,7.435,7.435,0,0,1,4.961-1.482,9.708,9.708,0,0,1,5.412,1.225,4.135,4.135,0,0,1,1.868,3.608v5.863a7.4,7.4,0,0,1-.934,4.027,5.72,5.72,0,0,1-2.222,2.095m-1.031-7.925a12.219,12.219,0,0,1-2.513.838l-1.482.323a3.8,3.8,0,0,0-1.675.836,2.625,2.625,0,0,0-.451,1.418,2.09,2.09,0,0,0,.58,1.547,2.439,2.439,0,0,0,1.675.516,3.567,3.567,0,0,0,3.866-3.866Z" transform="translate(-62.095 -13.631)" fill="#1d1d1b"/>
    <path id="Path_1068" data-name="Path 1068" d="M150.149,45.637a2.2,2.2,0,0,1-2.19,2.191h-2.19V31.785q0-4.508,2.642-6.153a10.662,10.662,0,0,1,5.735-1.643,9.268,9.268,0,0,1,3.253.612,6.074,6.074,0,0,1,2.61,1.772,10.271,10.271,0,0,1,1.932,6.443,10.489,10.489,0,0,1-1.932,6.572,6.043,6.043,0,0,1-4.961,2.448,6.559,6.559,0,0,1-2.835-.58,4.849,4.849,0,0,1-2.062-2Zm7.345-12.628a6.588,6.588,0,0,0-.966-3.866,3.2,3.2,0,0,0-2.771-1.353,3.134,3.134,0,0,0-2.706,1.353,6.573,6.573,0,0,0-.9,3.866,5.858,5.858,0,0,0,.967,3.673,3.2,3.2,0,0,0,2.77,1.353,3.076,3.076,0,0,0,2.642-1.353,6.211,6.211,0,0,0,.966-3.673" transform="translate(-82.829 -13.631)" fill="#1d1d1b"/>
    <path id="Path_1069" data-name="Path 1069" d="M190.819,45.637a2.2,2.2,0,0,1-2.19,2.191h-2.191V31.785q0-4.508,2.641-6.153a10.662,10.662,0,0,1,5.734-1.643,9.276,9.276,0,0,1,3.253.612,6.071,6.071,0,0,1,2.609,1.772,10.266,10.266,0,0,1,1.933,6.443,10.484,10.484,0,0,1-1.933,6.572,6.041,6.041,0,0,1-4.96,2.448,6.564,6.564,0,0,1-2.836-.58,4.846,4.846,0,0,1-2.061-2Zm7.345-12.628a6.582,6.582,0,0,0-.967-3.866,3.2,3.2,0,0,0-2.77-1.353,3.135,3.135,0,0,0-2.706,1.353,6.58,6.58,0,0,0-.9,3.866,5.855,5.855,0,0,0,.967,3.673,3.2,3.2,0,0,0,2.77,1.353,3.074,3.074,0,0,0,2.641-1.353,6.2,6.2,0,0,0,.967-3.673" transform="translate(-105.938 -13.631)" fill="#1d1d1b"/>
    <path id="Path_1070" data-name="Path 1070" d="M235.387,35.409a33.754,33.754,0,0,1-4.607-.064q-2.481-.195-2.481-3.158V13.245h2.32a2.042,2.042,0,0,1,1.482.644,2.117,2.117,0,0,1,.644,1.547v2.9h2.642v.9a2.081,2.081,0,0,1-.645,1.579,2.164,2.164,0,0,1-1.547.612h-.45v9.535q0,1.1,1.289,1.1h1.353Z" transform="translate(-129.725 -7.526)" fill="#1d1d1b"/>
    <path id="Path_1071" data-name="Path 1071" d="M258.444,36.231h3.222a7.034,7.034,0,0,1-2.706,4.123,8.2,8.2,0,0,1-5.025,1.483,7.176,7.176,0,0,1-5.734-2.384q-2.063-2.32-2.061-6.636a9.555,9.555,0,0,1,2-6.443,7.178,7.178,0,0,1,5.734-2.384,7.723,7.723,0,0,1,5.993,2.32,9.825,9.825,0,0,1,2.061,6.635v.709a1.125,1.125,0,0,1-.064.451H250.713a4.436,4.436,0,0,0,.965,2.963,3.047,3.047,0,0,0,2.513,1.032,3.647,3.647,0,0,0,1.869-.451.905.905,0,0,0,.354-.225l.354-.355a1.4,1.4,0,0,1,.484-.515,1.918,1.918,0,0,1,1.191-.322m-7.731-5.025h6.571a4.174,4.174,0,0,0-.9-2.577,3.1,3.1,0,0,0-2.384-.9,3.142,3.142,0,0,0-2.32.9,3.7,3.7,0,0,0-.965,2.577" transform="translate(-139.862 -13.631)" fill="#1d1d1b"/>
    <path id="Path_1072" data-name="Path 1072" d="M297.174,36.231H300.4a7.034,7.034,0,0,1-2.706,4.123,8.2,8.2,0,0,1-5.025,1.482,7.178,7.178,0,0,1-5.735-2.384q-2.063-2.32-2.061-6.636a9.556,9.556,0,0,1,2-6.443,7.177,7.177,0,0,1,5.734-2.384,7.72,7.72,0,0,1,5.993,2.32,8.843,8.843,0,0,1,1.675,3.286h-4.51a3.8,3.8,0,0,0-.644-.966,3.094,3.094,0,0,0-2.384-.9,3.14,3.14,0,0,0-2.32.9,6.3,6.3,0,0,0-1.158,4.252q0,2.964,1.158,4.188a3.046,3.046,0,0,0,2.513,1.032,3.647,3.647,0,0,0,1.869-.451.908.908,0,0,0,.354-.225l.354-.355a2.865,2.865,0,0,1,.515-.515,1.782,1.782,0,0,1,1.161-.322" transform="translate(-161.869 -13.631)" fill="#1d1d1b"/>
    <path id="Path_1073" data-name="Path 1073" d="M334.653,23.1a3.076,3.076,0,0,0-2.642-1.353,3.255,3.255,0,0,0-2.77,1.289,5.79,5.79,0,0,0-.966,3.544V35.41h-4.381V13.246h2.191a2.2,2.2,0,0,1,2.19,2.191v5.09a5.114,5.114,0,0,1,3.285-2.449,6.539,6.539,0,0,1,4.06.258,7.258,7.258,0,0,1,3.028,2.448,7.737,7.737,0,0,1,1.224,4.639V35.41h-4.316V26.518a9.07,9.07,0,0,0-.162-1.771,4.443,4.443,0,0,0-.741-1.644" transform="translate(-184.044 -7.527)" fill="#1d1d1b"/>
    <path id="Path_1074" data-name="Path 1074" d="M41.228,7.306l.009-1.377-.009.036V2.829S41.737-.552,34.92.078C33.439.137,32.231.3,32.231.3l-28.32,2.8C1.237,3.551.092,4.441.028,6.542s0,19.029,0,19.029A3.211,3.211,0,0,0,1.44,28.609a1.732,1.732,0,0,0,.554.282l.044.015.113.035a4.856,4.856,0,0,0,1.024.24h0c.552.1,1.247.213,2.131.334l25.648,2.376s.811.051,2.357.164v-5.37L10.007,25.309h0l-6.091-.375,0-.636V7.688L34.9,5.65v6.794h0v19.73l.025,0-.025.1,6.332,7.639L41.221,8.308l.008-.4h0Z" transform="translate(0 0)" fill="#da255c"/>
  </g>
</svg>
