<svg id="Group_672" data-name="Group 672" xmlns="http://www.w3.org/2000/svg" xmlns:xlink="http://www.w3.org/1999/xlink" width="22.074" height="29.244" viewBox="0 0 22.074 29.244">
  <defs>
    <clipPath id="clip-path">
      <rect id="Rectangle_209" data-name="Rectangle 209" width="22.074" height="29.244" fill="none"/>
    </clipPath>
  </defs>
  <g id="Group_672-2" data-name="Group 672" clip-path="url(#clip-path)">
    <path id="Path_1052" data-name="Path 1052" d="M22.015,5.837l-.03-.03v-.03L16.356.148l-.03-.03a.029.029,0,0,1-.03-.03.029.029,0,0,1-.03-.03A.487.487,0,0,0,15.97,0H2.015A1.972,1.972,0,0,0,.622.563l-.03.03A2.069,2.069,0,0,0,0,2.015V27.23a2.015,2.015,0,0,0,.593,1.422,2.069,2.069,0,0,0,1.422.593H20.059a2.015,2.015,0,0,0,1.422-.593,2.069,2.069,0,0,0,.593-1.422V6.133a.877.877,0,0,0-.059-.3" fill="#fff"/>
    <path id="Path_1053" data-name="Path 1053" d="M124.444,161.674a2.069,2.069,0,0,0-.711-.385,4.2,4.2,0,0,0-.919-.089h-1.363a.784.784,0,0,0-.5.148.728.728,0,0,0-.148.5v3.822a.878.878,0,0,0,.059.415.368.368,0,0,0,.178.237.832.832,0,0,0,.444.089h1.363a4.436,4.436,0,0,0,.652-.059,3.583,3.583,0,0,0,.533-.148,1.661,1.661,0,0,0,.444-.3,2.655,2.655,0,0,0,.444-.563,2.532,2.532,0,0,0,.267-.711,3.828,3.828,0,0,0,.089-.859,2.6,2.6,0,0,0-.83-2.1m-.77,3.674a1.2,1.2,0,0,1-.267.148,1.3,1.3,0,0,1-.3.059H121.9V162h.711a2.337,2.337,0,0,1,.83.119.925.925,0,0,1,.563.5,2.4,2.4,0,0,1,.237,1.156,2.033,2.033,0,0,1-.563,1.57" transform="translate(-111.852 -149.259)" fill="#00818c"/>
    <path id="Path_1054" data-name="Path 1054" d="M58.7,161.985a1.144,1.144,0,0,0-.563-.3,3.673,3.673,0,0,0-.919-.089H55.852a.728.728,0,0,0-.5.148c-.119.089-.148.267-.148.5v4.03a.754.754,0,0,0,.148.474.455.455,0,0,0,.385.148.522.522,0,0,0,.385-.178.754.754,0,0,0,.148-.474V164.77h.978a2.232,2.232,0,0,0,1.452-.415,1.5,1.5,0,0,0,.5-1.215,1.738,1.738,0,0,0-.119-.681,2.069,2.069,0,0,0-.385-.474m-.711,1.659a.752.752,0,0,1-.385.267,1.97,1.97,0,0,1-.622.089h-.711v-1.6h.711a1.465,1.465,0,0,1,.948.237.738.738,0,0,1,.207.563.987.987,0,0,1-.148.444" transform="translate(-51.111 -149.63)" fill="#00818c"/>
    <path id="Path_1055" data-name="Path 1055" d="M194.252,160.8a.985.985,0,0,0-.385.119.358.358,0,0,0-.207.207.7.7,0,0,0-.059.385v4a.7.7,0,0,0,.148.474.455.455,0,0,0,.385.148.624.624,0,0,0,.385-.148.754.754,0,0,0,.148-.474v-1.718h1.748a.472.472,0,0,0,.356-.119.344.344,0,0,0,.119-.3.38.38,0,0,0-.119-.3.635.635,0,0,0-.356-.119h-1.748V161.63h2.074a.5.5,0,0,0,.385-.119.43.43,0,0,0,0-.593.5.5,0,0,0-.385-.119Z" transform="translate(-179.259 -148.889)" fill="#00818c"/>
    <path id="Path_1056" data-name="Path 1056" d="M208,9l5.941,5.941h-4.364a1.432,1.432,0,0,1-1.1-.473,1.639,1.639,0,0,1-.473-1.1Z" transform="translate(-192.594 -8.332)" fill="#00818c"/>
  </g>
</svg>
